<?xml version="1.0" encoding="utf-8"?>
<!-- Generator: Adobe Illustrator 16.0.0, SVG Export Plug-In . SVG Version: 6.00 Build 0)  -->
<!DOCTYPE svg PUBLIC "-//W3C//DTD SVG 1.1//EN" "http://www.w3.org/Graphics/SVG/1.1/DTD/svg11.dtd">
<svg version="1.1" id="Layer_1" xmlns="http://www.w3.org/2000/svg" xmlns:xlink="http://www.w3.org/1999/xlink" x="0px" y="0px"
	 width="1341px" height="609.205px" viewBox="0 0 1341 609.205" enable-background="new 0 0 1341 609.205" xml:space="preserve">
<g>
	<path fill="none" stroke="#FD3D58" stroke-width="28" stroke-miterlimit="10" d="M925.216,194.925"/>
</g>
<g>
	<path fill="none" stroke="#FD3D58" stroke-width="29" stroke-miterlimit="10" d="M895.104,258.44"/>
</g>
<g>
	<path fill="#D93029" d="M1076.281,508.637c-1.846,0-3.699-0.025-5.549-0.076C958.429,505.51,869.55,411.66,872.6,299.358
		c0.271-10.075,1.293-20.18,3.028-30.034l30.283,5.333c-1.477,8.375-2.342,16.968-2.577,25.535
		c-2.591,95.36,72.881,175.042,168.23,177.633c29.263,0.794,58.47-5.812,84.491-19.108c25.329-12.936,47.194-31.918,63.236-54.893
		l25.208,17.606c-18.908,27.085-44.662,49.452-74.456,64.673C1141.097,500.89,1108.794,508.637,1076.281,508.637z"/>
</g>
<g>
	<path fill="#D93029" d="M1278.485,336.235l-30.43-4.426c1.245-8.568,1.851-16.69,1.808-25.428
		C1249.333,211.319,1171.828,135,1076.885,135c-0.328,0-0.65,0-0.973,0c-27.769,0-54.249,6.021-78.703,18.726
		c-23.34,12.133-43.959,29.432-59.621,50.657l-24.741-18.424c18.435-24.975,42.708-46.781,70.184-61.064
		c28.824-14.977,60.015-23.895,92.708-23.895c0.38,0,0.767,0,1.145,0c111.825,0,203.105,91.618,203.728,203.586
		C1280.667,314.855,1279.952,326.147,1278.485,336.235z"/>
</g>
<g>
	<path fill="#D93029" d="M940.578,195.467c0.044,8.562-6.854,15.539-15.411,15.588c-8.567,0.045-15.544-6.855-15.589-15.415
		c-0.048-8.559,6.85-15.538,15.414-15.584C933.551,180.006,940.531,186.909,940.578,195.467z"/>
</g>
<g>
	<path fill="#D93029" d="M907.416,269.805c0,8.562-6.94,15.499-15.502,15.499c-8.556,0-15.5-6.937-15.5-15.499
		c0-8.562,6.944-15.5,15.5-15.5C900.476,254.304,907.416,261.243,907.416,269.805z"/>
</g>
<g>
	<path fill="#D93029" d="M1249.993,409.106c0,8.562-6.943,15.497-15.499,15.497c-8.56,0-15.503-6.936-15.503-15.497
		c0-8.562,6.943-15.501,15.503-15.501C1243.05,393.605,1249.993,400.544,1249.993,409.106z"/>
</g>
<g>
	<path fill="#D93029" d="M1279.709,335.132c0.05,8.56-6.849,15.539-15.411,15.584c-8.562,0.048-15.537-6.852-15.589-15.411
		c-0.047-8.562,6.855-15.542,15.417-15.587C1272.683,319.671,1279.666,326.571,1279.709,335.132z"/>
</g>
<g>
	<path fill="#D93029" d="M1013.216,350.598l54.012-44.241c23.62-19.272,32.845-29.861,32.845-45.601
		c0-16.014-10.581-24.701-25.513-24.701c-11.938,0-20.362,5.156-30.945,16.557c-2.713,2.986-7.6,5.971-14.11,5.971
		c-10.589,0-19.001-8.413-19.001-18.998c0-4.614,1.899-9.5,4.885-13.029c15.195-17.644,33.115-27.958,61.882-27.958
		c39.357,0,65.419,23.071,65.419,58.629v0.541c0,31.757-16.284,47.5-49.946,73.558l-30.939,23.886h66.226
		c10.045,0,18.185,8.144,18.185,18.188c0,10.043-8.14,17.914-18.185,17.914h-103.146c-13.025,0-22.525-7.329-22.525-19.814
		C1002.359,363.355,1006.161,356.295,1013.216,350.598z"/>
</g>
<g>
	<path fill="#D93029" d="M132.542,254.734H92.374c-10.589,0-19.273-8.685-19.273-19.269c0-10.587,8.684-19.273,19.273-19.273
		h122.142c10.585,0,19.272,8.687,19.272,19.273c0,10.584-8.687,19.269-19.272,19.269h-40.171v132.186
		c0,11.672-9.229,20.902-20.9,20.902s-20.902-9.229-20.902-20.902V254.734z"/>
	<path fill="#D93029" d="M233.246,379.32l66.228-149.555c4.615-10.317,13.027-16.558,24.425-16.558h2.444
		c11.404,0,19.545,6.241,24.159,16.558L416.73,379.32c1.359,2.986,2.174,5.702,2.174,8.413c0,11.13-8.687,20.088-19.813,20.088
		c-9.775,0-16.288-5.7-20.087-14.385l-12.76-29.86h-83.598l-13.301,31.217c-3.531,8.145-10.587,13.028-19.271,13.028
		c-10.857,0-19.273-8.684-19.273-19.544C230.801,385.291,231.889,382.306,233.246,379.32z M350.772,326.664l-26.326-62.702
		l-26.331,62.702H350.772z"/>
	<path fill="#D93029" d="M451.747,235.465c0-11.673,9.228-20.902,20.901-20.902c11.668,0,20.902,9.229,20.902,20.902v132.728h77.352
		c10.59,0,19.003,8.415,19.003,19.001s-8.413,18.998-19.003,18.998h-98.254c-11.673,0-20.901-9.229-20.901-20.9V235.465z"/>
	<path fill="#D93029" d="M619.758,235.465c0-11.673,9.234-20.902,20.901-20.902c11.673,0,20.902,9.229,20.902,20.902v63.784
		l77.083-76.542c5.161-5.156,10.317-8.144,17.647-8.144c11.668,0,19.267,8.959,19.267,19.273c0,6.514-2.984,11.399-7.599,15.743
		l-53.47,49.942l58.358,73.288c3.259,4.071,5.698,8.415,5.698,14.657c0,11.672-8.956,20.356-21.17,20.356
		c-8.14,0-13.029-4.07-17.641-10.042l-54.287-71.116l-23.886,22.259v37.997c0,11.672-9.229,20.902-20.902,20.902
		c-11.667,0-20.901-9.229-20.901-20.902V235.465z"/>
</g>
<g>
	<path fill="#D93029" d="M1129,112.991c0,0,87.556-25.446,99.298-7.95c11.736,17.493-19.571,37.394-27.079,46.121
		c-7.504,8.723-72.219-9.545-72.219-9.545V112.991z"/>
</g>
<g>
	<path fill="#D93029" d="M1013,497.808c0,0-85.899,25.443-97.643,7.949c-11.744-17.497,18.744-37.396,26.252-46.116
		c7.507-8.727,71.39,9.541,71.39,9.541V497.808z"/>
</g>
</svg>
