<?xml version="1.0" encoding="utf-8"?>
<!-- Generator: Adobe Illustrator 16.0.0, SVG Export Plug-In . SVG Version: 6.00 Build 0)  -->
<!DOCTYPE svg PUBLIC "-//W3C//DTD SVG 1.1//EN" "http://www.w3.org/Graphics/SVG/1.1/DTD/svg11.dtd">
<svg version="1.1" id="Layer_1" xmlns="http://www.w3.org/2000/svg" xmlns:xlink="http://www.w3.org/1999/xlink" x="0px" y="0px"
	 width="215px" height="85px" viewBox="0 0 215 85" enable-background="new 0 0 215 85" xml:space="preserve">
<g>
	<g>
		<path fill="none" stroke="#FD3D58" stroke-width="28" stroke-miterlimit="10" d="M144,25.426"/>
	</g>
	<g>
		<path fill="none" stroke="#FD3D58" stroke-width="29" stroke-miterlimit="10" d="M139.444,35.033"/>
	</g>
	<g>
		<path fill="#D93029" d="M166.851,72.88c-0.278,0-0.559-0.003-0.839-0.011c-16.988-0.461-30.432-14.658-29.971-31.646
			c0.04-1.524,0.195-3.053,0.457-4.543l4.581,0.808c-0.223,1.266-0.354,2.566-0.39,3.861c-0.392,14.426,11.025,26.479,25.448,26.872
			c4.426,0.12,8.845-0.88,12.781-2.892c3.831-1.957,7.139-4.827,9.565-8.304l3.812,2.664c-2.86,4.098-6.756,7.481-11.263,9.783
			C176.655,71.708,171.77,72.88,166.851,72.88z"/>
	</g>
	<g>
		<path fill="#D93029" d="M197.438,46.801l-4.603-0.669c0.188-1.296,0.279-2.205,0.273-3.527C193.029,28.226,181.305,17,166.942,17
			c-0.05,0-0.098,0-0.147,0c-4.2,0-8.206,0.591-11.904,2.513c-3.531,1.834-6.65,4.292-9.02,7.502l-3.742-2.866
			c2.788-3.778,6.46-7.225,10.616-9.386C157.106,12.497,161.823,11,166.77,11c0.057,0,0.115,0,0.173,0
			c16.915,0,30.724,13.967,30.817,30.905C197.77,43.458,197.66,45.275,197.438,46.801z"/>
	</g>
	<g>
		<circle fill="#D93029" cx="143.979" cy="25.52" r="2.345"/>
	</g>
	<g>
		<circle fill="#D93029" cx="138.962" cy="36.752" r="2.345"/>
	</g>
	<g>
		<circle fill="#D93029" cx="190.784" cy="57.824" r="2.345"/>
	</g>
	<g>
		<circle fill="#D93029" cx="195.279" cy="46.648" r="2.344"/>
	</g>
	<g>
		<path fill="#D93029" d="M157.312,48.974l8.169-6.692c3.573-2.915,4.968-4.518,4.968-6.898c0-2.422-1.599-3.737-3.859-3.737
			c-1.806,0-3.08,0.78-4.681,2.505c-0.409,0.451-1.148,0.903-2.133,0.903c-1.603,0-2.875-1.272-2.875-2.874
			c0-0.698,0.286-1.438,0.739-1.972c2.298-2.669,5.008-4.229,9.36-4.229c5.954,0,9.896,3.49,9.896,8.869v0.083
			c0,4.803-2.464,7.184-7.557,11.126l-4.681,3.612h10.019c1.521,0,2.751,1.232,2.751,2.752c0,1.519-1.23,2.709-2.751,2.709h-15.603
			c-1.97,0-3.406-1.109-3.406-2.997C155.67,50.903,156.245,49.836,157.312,48.974z"/>
	</g>
	<g>
		<path fill="#D93029" d="M24.092,34.472h-6.076c-1.602,0-2.916-1.313-2.916-2.914c0-1.602,1.314-2.916,2.916-2.916h18.476
			c1.602,0,2.916,1.314,2.916,2.916c0,1.601-1.314,2.914-2.916,2.914h-6.077v19.996c0,1.765-1.396,3.161-3.162,3.161
			s-3.162-1.396-3.162-3.161V34.472z"/>
		<path fill="#D93029" d="M39.326,53.319l10.018-22.624c0.699-1.561,1.971-2.504,3.695-2.504h0.37c1.725,0,2.957,0.944,3.655,2.504
			l10.018,22.624c0.206,0.451,0.329,0.862,0.329,1.272c0,1.684-1.314,3.038-2.997,3.038c-1.479,0-2.464-0.862-3.038-2.175
			l-1.931-4.518H46.798l-2.012,4.722c-0.534,1.233-1.601,1.971-2.915,1.971c-1.643,0-2.916-1.313-2.916-2.956
			C38.956,54.222,39.12,53.77,39.326,53.319z M57.104,45.354l-3.982-9.485l-3.983,9.485H57.104z"/>
		<path fill="#D93029" d="M72.378,31.558c0-1.766,1.396-3.162,3.162-3.162c1.765,0,3.162,1.396,3.162,3.162v20.077h11.701
			c1.602,0,2.875,1.273,2.875,2.875c0,1.602-1.273,2.874-2.875,2.874H75.54c-1.766,0-3.162-1.395-3.162-3.161V31.558z"/>
		<path fill="#D93029" d="M97.793,31.558c0-1.766,1.397-3.162,3.162-3.162c1.766,0,3.163,1.396,3.163,3.162v9.648l11.659-11.579
			c0.781-0.779,1.562-1.231,2.671-1.231c1.765,0,2.914,1.355,2.914,2.915c0,0.986-0.451,1.724-1.149,2.381l-8.089,7.555
			l8.829,11.086c0.492,0.616,0.861,1.273,0.861,2.217c0,1.766-1.355,3.079-3.202,3.079c-1.231,0-1.971-0.615-2.669-1.519
			l-8.211-10.757l-3.613,3.367v5.748c0,1.765-1.396,3.161-3.163,3.161c-1.764,0-3.162-1.396-3.162-3.161V31.558z"/>
	</g>
	<g>
		<path fill="#D93029" d="M174,13.031c0,0,13.657-3.85,15.434-1.203c1.776,2.646-3.166,5.656-4.302,6.977
			C183.997,20.124,174,17.361,174,17.361V13.031z"/>
	</g>
	<g>
		<path fill="#D93029" d="M157,71.242c0,0-12.854,3.849-14.631,1.203s2.767-5.657,3.902-6.976C147.406,64.149,157,66.912,157,66.912
			V71.242z"/>
	</g>
</g>
</svg>
