<?xml version="1.0" encoding="utf-8"?>
<!-- Generator: Adobe Illustrator 16.0.0, SVG Export Plug-In . SVG Version: 6.00 Build 0)  -->
<!DOCTYPE svg PUBLIC "-//W3C//DTD SVG 1.1//EN" "http://www.w3.org/Graphics/SVG/1.1/DTD/svg11.dtd">
<svg version="1.1" id="Layer_1" xmlns="http://www.w3.org/2000/svg" xmlns:xlink="http://www.w3.org/1999/xlink" x="0px" y="0px"
	 width="93px" height="95px" viewBox="0 0 93 95" enable-background="new 0 0 93 95" xml:space="preserve">
<path fill="none" stroke="#D93029" stroke-width="3" stroke-miterlimit="10" d="M47.255,8.628c20.569,0,37.245,16.759,37.245,37.435
	c0,20.673-16.676,37.434-37.245,37.434c-20.57,0-37.245-16.761-37.245-37.434C10.01,25.387,26.685,8.628,47.255,8.628z"/>
<g>
	<rect x="31.331" y="27.555" fill="none" width="41.336" height="46.445"/>
	<text transform="matrix(1 0 0 1 31.3311 63.6318)" fill="#D93029" font-family="'GothamRounded-Medium'" font-size="49.0853">P</text>
	<path fill="#D93029" d="M65.938,39c0,1.087-0.586,2-1.309,2h-5.234c-0.726,0-1.312-0.913-1.312-2l0,0c0-1.087,0.586-2,1.312-2
		h5.234C65.352,37,65.938,37.913,65.938,39L65.938,39z"/>
	<path fill="#D93029" d="M65.938,44c0,1.087-0.586,2-1.309,2h-5.234c-0.726,0-1.312-0.913-1.312-2l0,0c0-1.087,0.586-2,1.312-2
		h5.234C65.352,42,65.938,42.913,65.938,44L65.938,44z"/>
	<path fill="#D93029" d="M39.261,39c0,1.087-0.586,2-1.309,2h-5.235c-0.724,0-1.31-0.913-1.31-2l0,0c0-1.087,0.585-2,1.31-2h5.235
		C38.675,37,39.261,37.913,39.261,39L39.261,39z"/>
	<path fill="#D93029" d="M39.261,44c0,1.087-0.586,2-1.309,2h-5.235c-0.724,0-1.31-0.913-1.31-2l0,0c0-1.087,0.585-2,1.31-2h5.235
		C38.675,42,39.261,42.913,39.261,44L39.261,44z"/>
</g>
</svg>
