<?xml version="1.0" encoding="utf-8"?>
<!-- Generator: Adobe Illustrator 16.0.0, SVG Export Plug-In . SVG Version: 6.00 Build 0)  -->
<!DOCTYPE svg PUBLIC "-//W3C//DTD SVG 1.1//EN" "http://www.w3.org/Graphics/SVG/1.1/DTD/svg11.dtd">
<svg version="1.1" id="Layer_1" xmlns="http://www.w3.org/2000/svg" xmlns:xlink="http://www.w3.org/1999/xlink" x="0px" y="0px"
	 width="93px" height="95px" viewBox="0 0 93 95" enable-background="new 0 0 93 95" xml:space="preserve">
<path fill-rule="evenodd" clip-rule="evenodd" fill="none" stroke="#D93029" stroke-width="3" stroke-miterlimit="10" d="
	M47.255,8.628c20.569,0,37.245,16.759,37.245,37.435c0,20.674-16.676,37.434-37.245,37.434c-20.57,0-37.245-16.76-37.245-37.434
	C10.01,25.387,26.685,8.628,47.255,8.628z"/>
<g id="hK0zvz_1_">
	<g>
		<path fill-rule="evenodd" clip-rule="evenodd" fill="#D93029" d="M68,36c-2.246,1.354-4.605,2.553-6.709,4.101
			c-2.369,1.743-4.617,2.613-7.2,0.598c-1.619-1.264-2.993-0.923-4.364,0.475c-2.092,2.135-4.249,4.21-6.413,6.274
			c-1.993,1.901-3.054,3.792-0.929,6.389c1.311,1.603,0.892,3.371-0.285,5.058c-1.804,2.586-3.475,5.265-5.202,7.904
			c-1.981,1.277-3.346,0.035-4.889-1.036C30.289,64.568,29.333,62.357,27,62c0-2.666,0-5.334,0-8
			c2.464-3.357,4.854-6.772,7.407-10.061C40.09,36.619,47.41,31.148,55,26c2.666,0,5.334,0,8,0c1.379,1.955,2.625,4.042,5,5
			C68,32.667,68,34.333,68,36z M59.141,28.721c-1.004,0.283-1.867,0.382-2.591,0.753c-11.44,5.855-20.109,14.468-25.88,25.992
			c-1.606,3.207-0.328,5.37,2.216,7.218c0.875,0.635,2.004,2.024,2.774,0.332c1.28-2.816,5.864-4.912,3.526-8.433
			c-2.73-4.11-0.717-6.405,1.781-8.918c2.807-2.824,5.758-5.505,8.654-8.239c1.191-1.124,2.498-1.739,3.935-0.458
			c3.083,2.749,5.745,1.306,8.234-0.875c1.108-0.971,3.901-1.172,2.829-3.282"/>
		<path fill-rule="evenodd" clip-rule="evenodd" fill="#F0F0F0" d="M63,26"/>
		<path fill-rule="evenodd" clip-rule="evenodd" fill="#F0F0F0" d="M68,31"/>
	</g>
</g>
</svg>
