<?xml version="1.0" encoding="utf-8"?>
<!-- Generator: Adobe Illustrator 16.0.0, SVG Export Plug-In . SVG Version: 6.00 Build 0)  -->
<!DOCTYPE svg PUBLIC "-//W3C//DTD SVG 1.1//EN" "http://www.w3.org/Graphics/SVG/1.1/DTD/svg11.dtd">
<svg version="1.1" id="Layer_1" xmlns="http://www.w3.org/2000/svg" xmlns:xlink="http://www.w3.org/1999/xlink" x="0px" y="0px"
	 width="93px" height="95px" viewBox="0 0 93 95" enable-background="new 0 0 93 95" xml:space="preserve">
<path fill="none" stroke="#D93029" stroke-width="3" stroke-miterlimit="10" d="M47.255,8.628c20.569,0,37.245,16.759,37.245,37.435
	c0,20.673-16.676,37.434-37.245,37.434c-20.57,0-37.245-16.761-37.245-37.434C10.01,25.387,26.685,8.628,47.255,8.628z"/>
<path fill="none" stroke="#D93029" stroke-width="3" stroke-miterlimit="10" d="M35,57"/>
<g>
	<rect x="41" y="28" fill="#D93029" width="13" height="2"/>
</g>
<g>
	<circle fill="#D93029" cx="46.487" cy="62.081" r="1.299"/>
	<path fill="#D93029" d="M46.487,63.805c-0.95,0-1.722-0.771-1.722-1.724s0.772-1.724,1.722-1.724c0.951,0,1.722,0.771,1.722,1.724
		S47.438,63.805,46.487,63.805z M46.487,61.205c-0.483,0-0.876,0.395-0.876,0.876c0,0.483,0.393,0.876,0.876,0.876
		c0.482,0,0.876-0.393,0.876-0.876C47.363,61.6,46.969,61.205,46.487,61.205z"/>
</g>
<rect x="35" y="24" fill="none" stroke="#D93029" stroke-width="3" stroke-miterlimit="10" width="24" height="45"/>
</svg>
