<?xml version="1.0" encoding="utf-8"?>
<!-- Generator: Adobe Illustrator 16.0.0, SVG Export Plug-In . SVG Version: 6.00 Build 0)  -->
<!DOCTYPE svg PUBLIC "-//W3C//DTD SVG 1.1//EN" "http://www.w3.org/Graphics/SVG/1.1/DTD/svg11.dtd">
<svg version="1.1" id="Layer_1" xmlns="http://www.w3.org/2000/svg" xmlns:xlink="http://www.w3.org/1999/xlink" x="0px" y="0px"
	 width="93px" height="95px" viewBox="0 0 93 95" enable-background="new 0 0 93 95" xml:space="preserve">
<path fill-rule="evenodd" clip-rule="evenodd" fill="none" stroke="#D93029" stroke-width="3" stroke-miterlimit="10" d="
	M47.255,8.628c20.569,0,37.245,16.759,37.245,37.435c0,20.674-16.676,37.434-37.245,37.434c-20.57,0-37.245-16.76-37.245-37.434
	C10.01,25.387,26.685,8.628,47.255,8.628z"/>
<path fill="none" stroke="#D93029" stroke-width="3" stroke-miterlimit="10" d="M35,57"/>
<polyline fill="none" stroke="#D93029" stroke-width="3" stroke-miterlimit="10" points="35,57.5 27.5,57.5 27.5,30.5 67.5,30.5 
	67.5,57.5 43,57.5 "/>
<polyline fill="none" stroke="#D93029" stroke-width="3" stroke-miterlimit="10" points="34.5,56 34.5,66 42.604,56 "/>
<line fill="none" stroke="#D93029" stroke-width="3" stroke-miterlimit="10" x1="34" y1="38.5" x2="62" y2="38.5"/>
<line fill="none" stroke="#D93029" stroke-width="3" stroke-miterlimit="10" x1="34" y1="43.5" x2="62" y2="43.5"/>
<line fill="none" stroke="#D93029" stroke-width="3" stroke-miterlimit="10" x1="34" y1="48.5" x2="51" y2="48.5"/>
</svg>
